<svg xmlns="http://www.w3.org/2000/svg" width="472.676" height="442.978" viewBox="0 0 472.676 442.978"><defs><style>.a,.j{fill:#0a1f62;}.a{stroke:#0a1f62;}.a,.b,.e,.f,.g,.h{stroke-width:0.3px;}.a,.b,.c,.d,.f,.g,.h,.i,.j{fill-rule:evenodd;}.b,.i{fill:#ca0015;}.b{stroke:#ca0015;}.c{fill:#fff;}.d,.h{fill:#ffb301;}.e,.f{fill:none;}.e,.f,.h{stroke:#ffb301;}.g{fill:#469c23;stroke:#469c23;}</style></defs><g transform="translate(-16.118 -124.488)"><path class="a" d="M31.388,345.889,252.811,124.7,474.059,345.889,415.816,404.13a223,223,0,0,1,53.027,97.5L399,481.943l-28.066,61.639a118.24,118.24,0,0,0-28.711-65.917l-89.413,89.589-89.53-89.53a118.449,118.449,0,0,0-28.652,65.8l-28.183-61.581L36.193,503.271a222.439,222.439,0,0,1,53.5-99.14Z" transform="translate(-2.815 0)"/><path class="a" d="M488.645,296.227V263.18l-5.8-.117q.177-53,.352-105.819H414.7v7.734l-63.984.059v.352H335.892v-.352l-50.741-.117-70.9.293c-17.812-.059-27.422-.117-45.292-.176v1c-10.078-.059-28.359-.059-38.378-.059a19.409,19.409,0,0,0-3.633-.527c-7.851,0-15.7,0-23.554.059-1.641,1-3.281,1.992-4.863,3.047h-.352a18.492,18.492,0,0,0-7.851-3.047c-5.391-.059-10.781-.117-16.172-.117v-7.851L38.3,157.244c-13.887-.117-22.031,9.785-22.031,21.445V296.227Z" transform="translate(0 -6.06)"/><path class="b" d="M45.716,348.543,255.479,138.956,465.125,348.543,255.479,558.306Z" transform="translate(-5.483 -2.655)"/><path class="c" d="M59.972,351.185,258.134,153.14,456.119,351.185,258.134,549.346Z" transform="translate(-8.138 -5.296)"/><g transform="translate(63.435 159.504)"><path class="d" d="M129.6,310.259l131.19-131.19L129.6,310.259Zm262.2,0L260.788,179.069,129.6,310.259a61.534,61.534,0,0,1,0,87.3l87.479,87.479a61.467,61.467,0,0,1,87.246,0L391.8,397.563a61.816,61.816,0,0,1,0-87.3ZM74.228,353.852l186.56-186.384L447.173,353.852l-186.384,186.5Z" transform="translate(-74.228 -167.468)"/><line class="e" y1="131.19" x2="131.19" transform="translate(55.371 11.602)"/><path class="f" d="M404.472,312.914,273.458,181.724l-131.19,131.19" transform="translate(-86.898 -170.122)"/><path class="f" d="M142.268,342.932a61.534,61.534,0,0,1,0,87.3" transform="translate(-86.898 -200.141)"/><line class="e" x2="87.48" y2="87.48" transform="translate(55.371 230.095)"/><path class="f" d="M249.764,553.552a61.467,61.467,0,0,1,87.246,0" transform="translate(-106.914 -235.977)"/><line class="e" y1="87.48" x2="87.479" transform="translate(230.096 230.095)"/><path class="f" d="M460.339,430.236a61.816,61.816,0,0,1,0-87.3" transform="translate(-142.764 -200.141)"/><path class="f" d="M74.228,353.853l186.56-186.385L447.173,353.853l-186.384,186.5Z" transform="translate(-74.228 -167.468)"/></g><path class="g" d="M404.472,312.914,273.458,181.724l-131.19,131.19a61.534,61.534,0,0,1,0,87.3l87.479,87.48a61.467,61.467,0,0,1,87.246,0l87.479-87.48a61.817,61.817,0,0,1,0-87.3Z" transform="translate(-23.462 -10.618)"/><path class="c" d="M505.743,390.279l-27.3,27.3-27.363-27.3,27.363-27.187Z" transform="translate(-80.964 -44.39)"/><path class="c" d="M88.556,390.279l27.3-27.187,27.3,27.187-27.3,27.3Z" transform="translate(-13.461 -44.39)"/><path class="b" d="M482.048,289.746v-16.23l-5.624-.117.234-105.526-18.165-.117-4.98,4.746-.059-4.629H425.213v8.144H359.354v2.344a7.232,7.232,0,0,0-4.628-2.344l-17.7.059a10.53,10.53,0,0,0-6.093,2.461v-2.52l-47.226.059H263.262c-4.16.234-7.617,1.641-9.9,4.863-2.637-3.223-6.094-4.629-10.254-4.922h-23.32c-29.824-.117-56.894,0-86.366,0v1.758a17.676,17.676,0,0,0-5.215-1.758l-17.636.059c-3.574.059-9.434,3.633-9.961,7.559-.117-3.926-4.922-7.5-8.555-7.559l-19.511-.059a6.792,6.792,0,0,0-4.98,2.52l.059-10.371-31.347-.41c-7.969-.117-9.492,6.562-9.492,12.89v109.1Z" transform="translate(-1.957 -8.017)"/><path class="h" d="M33.692,285.275V181.8a7.814,7.814,0,0,1,7.851-7.851l22.265.234v21.445H57.891V181.8H44.532v97.323l8.262-.059c2.988,0,5.391-4.1,5.156-11.543l-.234-7.559h6.211L63.574,273.2c-.117,5.332-5.332,11.836-10.723,11.894l-19.16.176Zm346.519,0c-3.633,0-7.793-4.043-7.793-7.734l-.059-87.421h-5.918v-8.2h22.265v8.2H383.2v89.413h10.663V181.916h16.876v8.2H404.7l.117,81.562c0,3.926-2.461,6.269-6.386,7.793l10.253.059a8,8,0,0,0,7.793-7.851l.059-89.472h15.586v7.91h-5.743l-.292,77.812A17.68,17.68,0,0,1,408.8,285.275Zm52.734,0V279.65h5.273V181.8h-5.977v-7.793h17.636v12.07l12.364-12.012,10.605-.059-.41,105.526,5.858.117v5.625H462.417V186.252l-.352.059L449.7,195.569l.174,83.729h6.035v5.977Zm-358.882,0c-3.633,0-7.793-4.16-7.793-7.91V190c0-3.926,4.277-7.734,7.793-7.734l17.4-.059c3.75,0,7.851,4.16,7.851,7.793v87.362c0,3.691-4.16,7.734-7.851,7.793l-17.4.117Zm4.394-5.742h8.906V190.12H78.457v89.413Zm33.75,5.742c-3.75,0-7.91-4.16-7.91-7.91V190c0-3.926,4.394-7.734,7.91-7.734l17.4-.059c3.633,0,7.793,4.16,7.793,7.793l-.059,87.362c0,3.691-4.1,7.734-7.734,7.793l-17.4.117Zm4.336-5.742h8.906V190.12h-8.906v89.413Zm222.009,5.742c-3.691,0-7.852-4.16-7.852-7.91V190c0-3.926,4.395-7.734,7.852-7.734l17.462-.059c3.632,0,7.792,4.16,7.792,7.793l-.058,87.362c0,3.691-4.1,7.734-7.734,7.793l-17.462.117Zm4.394-5.742h8.906V190.12h-8.906v89.413ZM253.24,263.126h10.605l-.41,12.715,12.949.059.234-36.328-13.125-.117c-4.218,0-7.148-4.277-7.148-8.437V189.592c0-3.691,4.159-7.852,7.851-7.852h20.157a8.179,8.179,0,0,1,3.1.645v-.645h39.785v21.5l-3.984-.293-.059-13.008-9.726.176.117,89.237h4.746l.059,5.918H297.536v-5.8l3.223-.117.41-89.413H292.2v13.008H280.662l.469-12.773-13.007-.058-.118.586-.293,33.4,12.715.059a7.454,7.454,0,0,1,7.559,7.793v45.41c0,3.75-4.16,7.91-7.793,7.91H257.927l-4.687-22.148Zm4.687,22.148-4.687-22.148.059-11.953c-.293-5.273-4.512-9.609-12.539-12.89,4.98-1.641,11.543-3.164,11.543-11.484l-.059-37.207c0-3.691-4.219-7.676-7.851-7.676l-66.269-.176v4.336h5.566l.117,93.28h-3.75l.117,5.918h33.574l-.176-21.211h-5.918v12.773H195.116l.117-43.652H204.9l.059,7.383h4.922V219.182l-4.863.176.059,7.793-9.785-.234-.059-36.972H207.6l.059,13.008h5.918V190.12h4.863l1.055,89.237-3.633.117v5.8h18.808l-.117-5.918h-3.984l-.293-38.086,4.512.059c3.105,1,4.746,2.93,4.98,5.859l1.055,32.168-3.633.117v5.8Zm-23.143-52.5-4.336.469-.41-43.3h10.019l.762,36.972c0,2.812-3.281,5.566-6.035,5.859Zm-94.335,52.5v-5.8l3.691-.117V189.944h-3.691v-7.207l29.648.117c3.691,0,7.851,4.043,7.851,7.793l.059,52.441c0,3.691-4.16,7.734-7.91,7.851l-13.535.234-.117,28.183h4.687l.176,5.918Zm16.7-40.781,10.019-.059-.059-54.492H157.089Z" transform="translate(-3.244 -9.17)"/><g transform="translate(147.634 249.152)"><path class="c" d="M280.054,482.235c56.249,0,102.245-46,102.245-102.361,0-56.25-46-102.246-102.245-102.246-56.366,0-102.362,46-102.362,102.246A102.576,102.576,0,0,0,280.054,482.235Z" transform="translate(-177.692 -277.628)"/><g transform="translate(136.404 18.398)"><path class="i" d="M379.152,387.208a1.311,1.311,0,0,1-1.816-1.172,2.254,2.254,0,0,1,1.113-2.519c.879-.352,1.7.234,1.874,1.289A2.2,2.2,0,0,1,379.152,387.208Z" transform="translate(-351.26 -315.724)"/><path class="i" d="M379.637,376.484c-.879.234-1.582-.469-1.641-1.465a2.337,2.337,0,0,1,1.523-2.285,1.418,1.418,0,0,1,1.641,1.523A2.084,2.084,0,0,1,379.637,376.484Z" transform="translate(-351.394 -313.731)"/><path class="i" d="M382.377,354.35a1.338,1.338,0,0,1,1.347-1.7,2.237,2.237,0,0,1,2.226,1.523c.294.879-.351,1.582-1.347,1.641A2.192,2.192,0,0,1,382.377,354.35Z" transform="translate(-352.2 -309.995)"/><path class="i" d="M385.545,347.956a1.278,1.278,0,0,1,1.347-1.641,2.268,2.268,0,0,1,2.227,1.465,1.284,1.284,0,0,1-1.289,1.641A2.318,2.318,0,0,1,385.545,347.956Z" transform="translate(-352.79 -308.816)"/><path class="i" d="M388.073,340.847c-.117-.82.586-1.348,1.581-1.23a2.4,2.4,0,0,1,1.934,1.758c.117.82-.586,1.406-1.524,1.23A2.4,2.4,0,0,1,388.073,340.847Z" transform="translate(-353.268 -307.566)"/><path class="i" d="M391.172,334.611c0-.645.82-1,1.758-.7a2.3,2.3,0,0,1,1.7,1.816c0,.7-.762,1.055-1.7.7C391.992,336.135,391.172,335.314,391.172,334.611Z" transform="translate(-353.847 -306.487)"/><path class="i" d="M393.973,330.087c.175-.586,1-.586,1.816,0a2.127,2.127,0,0,1,1.23,2.051c-.176.527-1,.527-1.816,0C394.383,331.552,393.8,330.615,393.973,330.087Z" transform="translate(-354.363 -305.713)"/><path class="i" d="M397,327.79c.116-.586.879-.527,1.7.059.761.644,1.348,1.523,1.23,1.992-.174.586-.879.527-1.7-.058S396.883,328.259,397,327.79Z" transform="translate(-354.929 -305.29)"/><path class="i" d="M380.275,364.171a1.343,1.343,0,0,1,1.172-1.875,2.359,2.359,0,0,1,2.4,1.23,1.347,1.347,0,0,1-1.171,1.816A2.239,2.239,0,0,1,380.275,364.171Z" transform="translate(-351.798 -311.789)"/><path class="i" d="M347.417,378.067c.879.059,1.348.937,1.114,1.934a2.05,2.05,0,0,1-1.994,1.7c-.937-.059-1.405-.879-1.171-1.934A2.158,2.158,0,0,1,347.417,378.067Z" transform="translate(-345.307 -314.728)"/><path class="i" d="M349.65,363.019a1.4,1.4,0,0,1,1.172,1.875,2.107,2.107,0,0,1-2.051,1.758,1.452,1.452,0,0,1-1.173-1.934A2.16,2.16,0,0,1,349.65,363.019Z" transform="translate(-345.723 -311.926)"/><path class="i" d="M352.36,348.935a1.574,1.574,0,0,1,.351,2.344,2.031,2.031,0,0,1-2.519.586,1.49,1.49,0,0,1-.293-2.285A1.976,1.976,0,0,1,352.36,348.935Z" transform="translate(-346.089 -309.267)"/><path class="i" d="M356.967,338.244a1.5,1.5,0,0,1-.821,2.168,2.143,2.143,0,0,1-2.462-.879,1.407,1.407,0,0,1,.821-2.109A1.974,1.974,0,0,1,356.967,338.244Z" transform="translate(-346.828 -307.131)"/><path class="i" d="M364.023,384c.06-1-.058-2.051,0-3.047a6.24,6.24,0,0,1,1.407-2.813c.177-.176,0,1,.177.82-.177.762-.352.644-.528,1.465C364.668,381.827,364.492,382.589,364.023,384Z" transform="translate(-348.789 -314.738)"/><path class="i" d="M365.892,372.939c0-1.055-.295-2.051-.352-3.047a6.912,6.912,0,0,1,1.113-2.988c.176-.176.117,1.055.294.762-.118.82-.294.762-.41,1.523C366.242,370.713,366.242,371.474,365.892,372.939Z" transform="translate(-349.074 -312.647)"/><path class="i" d="M367.844,359.251c.234-.938.293-1.992.527-2.988a5.885,5.885,0,0,1,1.991-2.461c.177-.117-.234,1.055,0,.879-.351.7-.527.586-.819,1.289C368.84,357.318,368.6,357.962,367.844,359.251Z" transform="translate(-349.503 -310.209)"/><path class="i" d="M372.309,346.959c-.234-1.055-.7-2.051-.937-3.164a8.975,8.975,0,0,1,.586-3.457c.116-.117.351,1.113.351.879.059.82-.058.82,0,1.7Z" transform="translate(-350.16 -307.702)"/><path class="i" d="M374.279,375.889c.7-.117,1.406.117,2.051-.059,1.23-.469,1.405-2.578.469-3.106-3.1-1.816-6.622-1.465-10.254-.7-2.169.469-2.4,5.918-1.114,5.039C368.185,376.651,371.583,376.475,374.279,375.889Z" transform="translate(-348.907 -313.488)"/><path class="i" d="M360.3,386.079c-2.754-2.578-8.32-5.273-12.012-6.445A1.3,1.3,0,0,0,347,381.86c3.692,3.574,7.911,5.332,11.6,7.5,1.583,1,3.223-.762,2.285-2.52Z" transform="translate(-345.536 -315.005)"/><path class="i" d="M373.9,388.207c.879-.352,5.859-2.52,2.4-3.633-3.809-1.172-7.734-.176-11.719,1.289-2.462.879-1.817,6.328-.586,5.215C367.158,390.14,370.908,389.262,373.9,388.207Z" transform="translate(-348.583 -315.844)"/><path class="i" d="M364.5,356.342a33.51,33.51,0,0,0-11.484-7.09c-1.582-.469-2.871,1.523-1.758,2.4,4.1,3.34,10.84,5.742,11.9,9.785C363.623,363.314,366.729,358.509,364.5,356.342Z" transform="translate(-346.337 -309.35)"/><path class="i" d="M362.242,370.848a39.639,39.639,0,0,0-11.66-6.914,1.289,1.289,0,0,0-1.348,2.168c4.16,3.4,10.663,6.094,12.129,9.961C362.125,377.82,364.643,373.074,362.242,370.848Z" transform="translate(-345.952 -312.079)"/><path class="i" d="M376.3,365.163c.7-.176,1.348.176,2.05-.059a1.914,1.914,0,0,0,.41-3.105c-3.1-1.816-6.562-1.465-10.253-.645-2.109.469-2.285,5.918-1.055,5.039C370.265,365.925,373.546,365.749,376.3,365.163Z" transform="translate(-349.287 -311.492)"/><path class="i" d="M379.123,353.916a2.908,2.908,0,0,0,1.758.41,1.657,1.657,0,0,0,1-2.578,13.5,13.5,0,0,0-8.673-3.633c-2.4-.176-3.515,5.273-1.991,4.8A11.132,11.132,0,0,1,379.123,353.916Z" transform="translate(-350.001 -309.151)"/><path class="i" d="M382.083,344.885c.411.352,1.231,2.109,1.875,2.168,1.23,0,1.582-2.4.879-3.223-2.168-2.637-4.746-5.215-8.144-5.8-2.462-.41-5.273,4.043-3.633,3.808C376.048,341.487,380.033,343.42,382.083,344.885Z" transform="translate(-350.383 -307.269)"/><path class="i" d="M368.109,343.926a31.074,31.074,0,0,0-11.073-5.683c-1.525-.352-2.578,1.582-1.466,2.4,3.984,2.754,10.371,4.453,11.66,8.144C367.757,350.43,370.277,345.8,368.109,343.926Z" transform="translate(-347.132 -307.305)"/><path class="i" d="M359.99,327.222a1.43,1.43,0,0,1-.821,2.109,2.039,2.039,0,0,1-2.46-.82,1.473,1.473,0,0,1,.821-2.168A2.065,2.065,0,0,1,359.99,327.222Z" transform="translate(-347.391 -305.074)"/><path class="i" d="M363.868,318.42a1.484,1.484,0,0,1-.938,2.109,2.1,2.1,0,0,1-2.46-1,1.52,1.52,0,0,1,.938-2.109A2.171,2.171,0,0,1,363.868,318.42Z" transform="translate(-348.105 -303.42)"/><path class="i" d="M368.275,312.429c.41.645,0,1.406-.938,1.582a2.027,2.027,0,0,1-2.344-.762c-.469-.645,0-1.348.879-1.582A2.3,2.3,0,0,1,368.275,312.429Z" transform="translate(-348.938 -302.351)"/><path class="i" d="M371.687,307.792c.41.586-.058,1.23-1.054,1.289a2.7,2.7,0,0,1-2.461-.879c-.41-.586.117-1.172,1.113-1.348A2.44,2.44,0,0,1,371.687,307.792Z" transform="translate(-349.538 -301.464)"/><path class="i" d="M374.575,304.444c.294.527-.292,1-1.229.937a2.943,2.943,0,0,1-2.286-1.113c-.352-.586.234-1,1.171-.938A2.991,2.991,0,0,1,374.575,304.444Z" transform="translate(-350.083 -300.811)"/><path class="i" d="M374.895,300.236c-1,0-1.524.469-1.172,1a3.307,3.307,0,0,0,2.4,1.055,1.4,1.4,0,0,0,1.113-.352Z" transform="translate(-350.578 -300.236)"/><path class="i" d="M373.46,339.669c.116-1.113,0-2.227.116-3.34a9.172,9.172,0,0,1,1.525-3.047c.174-.117,0,1.23.174.938a10.641,10.641,0,0,0-.584,1.641C374.163,337.325,373.986,338.146,373.46,339.669Z" transform="translate(-350.549 -306.388)"/><path class="i" d="M377.2,330.6c.234-.879.351-1.758.586-2.637a7.126,7.126,0,0,1,1.758-2.168c.176-.117-.176.938-.059.762-.234.644-.176.293-.527.937C378.317,328.606,377.848,329.485,377.2,330.6Z" transform="translate(-351.246 -304.993)"/><path class="i" d="M380.728,324.785c.118-.7-.058-1.406,0-2.109a5.348,5.348,0,0,1,1.289-1.992c.06-.059,0,.82.06.644-.06.527-.118.293-.295.762C381.373,323.086,381.138,323.789,380.728,324.785Z" transform="translate(-351.9 -304.043)"/><path class="i" d="M382.748,319.736c.234-.7.352-1.406.586-1.992a4.1,4.1,0,0,1,1.758-1.524c.176,0-.234.7-.058.586-.295.469-.234.176-.587.7C383.8,318.271,383.393,318.857,382.748,319.736Z" transform="translate(-352.278 -303.212)"/><path class="i" d="M385.844,316.106c.176-.527.176-1,.41-1.582a4.513,4.513,0,0,1,1.348-1.113c.176-.059-.176.586,0,.469-.234.41-.234.176-.469.527C386.664,315.052,386.313,315.462,385.844,316.106Z" transform="translate(-352.855 -302.689)"/><path class="i" d="M370.232,332.657a26.286,26.286,0,0,0-10.37-5.215c-1.465-.351-2.461,1.641-1.406,2.4,3.867,2.93,10.076,4.629,11.308,8.379C370.291,339.981,372.4,334.591,370.232,332.657Z" transform="translate(-347.673 -305.294)"/><path class="i" d="M384.816,337.491c.41.41,1.055,2.227,1.64,2.285,1.231.234,1.758-2.226,1.231-3.047-1.992-2.871-4.394-5.684-7.617-6.562-2.52-.762-5.684,3.457-3.985,3.4C379.074,333.448,382.883,335.792,384.816,337.491Z" transform="translate(-350.948 -305.792)"/><path class="i" d="M373.823,324.87a26.055,26.055,0,0,0-10.02-5.859c-1.406-.469-2.578,1.406-1.523,2.285,3.633,3.105,9.785,5.273,10.781,9.082C373.528,332.194,375.873,326.921,373.823,324.87Z" transform="translate(-348.391 -303.718)"/><path class="i" d="M377.178,318.09c-2.46-1.934-4.746-4.8-8.262-5.625-1.465-.352-2.93,1.289-1.875,1.934,3.749,2.519,9.609,5.449,10.664,8.5C378.175,324.242,379.288,319.789,377.178,318.09Z" transform="translate(-349.287 -302.504)"/><path class="i" d="M388.278,331.286c.47.469.763,2.051,1.407,2.285,1.171.352,2.051-1.582,1.523-2.344-1.523-2.754-3.516-5.508-6.68-6.914-2.344-.937-6.035,1.992-4.395,2.227C383.123,327.009,386.639,329.587,388.278,331.286Z" transform="translate(-351.716 -304.685)"/><path class="i" d="M390.827,326.228c.41.352.82,2.637,1.465,2.871,1.23.41,1.348-1.875.937-2.637-1.405-2.461-2.694-4.922-5.917-6.445-2.461-1.172-6.563.586-4.805,1A19.52,19.52,0,0,1,390.827,326.228Z" transform="translate(-352.154 -303.846)"/><path class="i" d="M378.969,312.976c-2.4-1.934-3.281-4.277-6.914-5.273-1.465-.469-3.047.938-2.051,1.582,3.691,2.52,9.433,5.625,10.254,8.379C380.669,318.952,380.962,314.558,378.969,312.976Z" transform="translate(-349.847 -301.609)"/><path class="i" d="M381.944,310.033c-2.168-1.992-3.223-4.336-6.68-5.742-1.465-.644-3.164.293-2.227,1,3.4,2.637,9.2,6.387,9.668,8.848C382.941,315.247,383.76,311.673,381.944,310.033Z" transform="translate(-350.42 -300.951)"/><path class="i" d="M399.159,326.668c.117-.41.645-.352,1.289.059a2,2,0,0,1,.879,1.523c-.059.41-.7.41-1.231-.059C399.452,327.723,399.041,327.02,399.159,326.668Z" transform="translate(-355.331 -305.106)"/><path class="b" d="M384.378,307.347c-2.168-1.934-3.574-4.394-7.031-5.859-1.407-.586-3.164.293-2.285,1,3.457,2.637,9.609,6.562,10.078,8.965C385.374,312.562,386.195,309.047,384.378,307.347Z" transform="translate(-350.803 -300.433)"/><path class="b" d="M396.238,321.658c.292.527.527,2.988,1.171,3.457,1.115.82,1.466-1.7,1.115-2.519-1.115-2.871-2.11-5.625-5.156-8.086-2.286-1.816-6.5-1.231-4.805-.293A26.686,26.686,0,0,1,396.238,321.658Z" transform="translate(-353.288 -302.674)"/><path class="i" d="M393.791,323.273c.411.41.938,3.164,1.583,3.516,1.23.7,1.289-2.109.88-2.871-1.407-2.754-2.7-5.332-5.977-7.383-2.4-1.582-6.5-.527-4.746.176A24.51,24.51,0,0,1,393.791,323.273Z" transform="translate(-352.717 -303.117)"/></g><g transform="translate(23.478 18.451)"><path class="i" d="M229.747,393.5c.82.352,1.641-.176,1.816-1.23a2.087,2.087,0,0,0-1.23-2.344,1.326,1.326,0,0,0-1.816,1.172A2.234,2.234,0,0,0,229.747,393.5Z" transform="translate(-210.628 -316.969)"/><path class="i" d="M229.183,380.1a1.393,1.393,0,0,0,1.641-1.524,2.185,2.185,0,0,0-1.523-2.168,1.4,1.4,0,0,0-1.641,1.465A2.191,2.191,0,0,0,229.183,380.1Z" transform="translate(-210.473 -314.467)"/><path class="i" d="M227.322,356.956a1.338,1.338,0,0,0-1.406-1.641,2.379,2.379,0,0,0-2.227,1.465c-.234.879.41,1.582,1.406,1.64A2.347,2.347,0,0,0,227.322,356.956Z" transform="translate(-209.726 -310.545)"/><path class="i" d="M224.03,347.537a1.2,1.2,0,0,0-1.289-1.582,2.222,2.222,0,0,0-2.227,1.406,1.28,1.28,0,0,0,1.289,1.7A2.4,2.4,0,0,0,224.03,347.537Z" transform="translate(-209.129 -308.802)"/><path class="i" d="M219.711,338.552c.059-.82-.7-1.348-1.641-1.172a2.27,2.27,0,0,0-1.934,1.7c-.117.82.645,1.348,1.582,1.23A2.4,2.4,0,0,0,219.711,338.552Z" transform="translate(-208.326 -307.199)"/><path class="i" d="M216.514,332.508c0-.762-.762-1.055-1.7-.762a2.226,2.226,0,0,0-1.7,1.816c0,.645.762,1,1.7.7C215.753,333.914,216.514,333.153,216.514,332.508Z" transform="translate(-207.766 -306.136)"/><path class="i" d="M213.778,328c-.176-.527-1-.586-1.816-.059-.937.586-1.406,1.465-1.23,1.992.176.586,1,.645,1.816.059C213.427,329.467,213.954,328.588,213.778,328Z" transform="translate(-207.315 -305.38)"/><path class="i" d="M210.728,325.723c-.117-.469-.879-.41-1.641.117-.762.645-1.348,1.523-1.23,1.992.176.527.879.469,1.641-.117A2.325,2.325,0,0,0,210.728,325.723Z" transform="translate(-206.784 -304.976)"/><path class="i" d="M229.69,367.434a1.37,1.37,0,0,0-1.23-1.758,2.24,2.24,0,0,0-2.4,1.172,1.37,1.37,0,0,0,1.23,1.816A2.454,2.454,0,0,0,229.69,367.434Z" transform="translate(-210.161 -312.468)"/><path class="i" d="M261.651,384.259c-.879,0-1.406.879-1.172,1.875a2.158,2.158,0,0,0,2.051,1.7,1.37,1.37,0,0,0,1.172-1.875A2.158,2.158,0,0,0,261.651,384.259Z" transform="translate(-216.575 -315.934)"/><path class="i" d="M260.071,370c-.879.059-1.348.879-1.172,1.875a2.346,2.346,0,0,0,2.051,1.758,1.421,1.421,0,0,0,1.172-1.934A2.158,2.158,0,0,0,260.071,370Z" transform="translate(-216.284 -313.28)"/><path class="i" d="M258.464,357.136a1.435,1.435,0,0,0-.293,2.227,2.054,2.054,0,0,0,2.519.644,1.509,1.509,0,0,0,.293-2.285A2.047,2.047,0,0,0,258.464,357.136Z" transform="translate(-216.083 -310.842)"/><path class="i" d="M254.331,346.018a1.4,1.4,0,0,0,.82,2.051,2.04,2.04,0,0,0,2.461-.82,1.465,1.465,0,0,0-.82-2.109A2.066,2.066,0,0,0,254.331,346.018Z" transform="translate(-215.407 -308.63)"/><path class="i" d="M245.082,380.268c-.059-1,.117-1.992,0-2.988a6.291,6.291,0,0,0-1.406-2.812c-.176-.059,0,1.055-.176.879.176.762.41.645.527,1.406C244.5,378.159,244.672,378.862,245.082,380.268Z" transform="translate(-213.424 -314.111)"/><path class="i" d="M242.683,369.944c0-1,.293-1.992.352-2.988a6.867,6.867,0,0,0-1.231-2.93c-.117-.117-.059,1.055-.176.762a15.337,15.337,0,0,0,.352,1.582C242.331,367.776,242.39,368.538,242.683,369.944Z" transform="translate(-213.075 -312.166)"/><path class="i" d="M236.8,347.194c0-1.113.352-2.227.41-3.4a8.3,8.3,0,0,0-1.406-3.457c-.176-.117-.117,1.23-.293.938.117.938.352.879.469,1.816C236.328,344.733,236.446,345.553,236.8,347.194Z" transform="translate(-211.935 -307.755)"/><path class="i" d="M240.32,356.543c-.293-.938-.293-1.934-.527-2.93a6.638,6.638,0,0,0-1.992-2.4c-.176-.059.176,1.055,0,.879.293.7.469.586.82,1.289C239.324,354.61,239.617,355.313,240.32,356.543Z" transform="translate(-212.353 -309.781)"/><path class="i" d="M232.307,377.061c-.7.176-1.23.7-1.934.762a1.689,1.689,0,0,1-1.406-2.578c2.344-2.871,5.8-3.984,9.433-4.746,2.227-.527,4.16,4.277,2.7,4.043C238.283,375.3,235.061,376.475,232.307,377.061Z" transform="translate(-210.668 -313.365)"/><path class="i" d="M245.63,380.073c2.93-.352,8.5,1.23,12.07,2.812,1.465.645,2.051,2.871.937,3.047-3.867.7-8.144-.82-11.777-1.465-1.641-.234-3.047-3.164-1.875-4.1Z" transform="translate(-213.62 -315.146)"/><path class="i" d="M233.247,389.542c-.7.234-1.406,1-2.109,1.113-1.348.352-1.523-1.758-.527-2.871,3.223-3.691,6.914-5.449,10.664-6.855,2.227-.82,2.52,4.688,1.231,4.57C239.517,386.671,236.06,388.546,233.247,389.542Z" transform="translate(-210.905 -315.299)"/><path class="i" d="M242.181,357.418a31,31,0,0,1,12.773-.879c1.582.352,1.875,2.578.527,2.813-4.922,1.055-11.719.059-14.238,2.988C240.013,363.746,239.369,358.238,242.181,357.418Z" transform="translate(-212.808 -310.713)"/><path class="i" d="M243.786,367.736c3.105-.527,8.437.352,11.953,1.582,1.465.586,1.816,2.871.644,2.93-4.512.293-10.781-1.7-13.066.937C242.263,374.357,241.266,368.2,243.786,367.736Z" transform="translate(-213.182 -312.829)"/><path class="i" d="M230.624,364.926c-.7.234-1.23.879-1.875,1.055a1.557,1.557,0,0,1-1.641-2.285c2.168-3.281,5.566-4.98,9.2-6.387,2.227-.82,4.453,3.633,2.93,3.574C236.483,362.113,233.319,363.871,230.624,364.926Z" transform="translate(-210.333 -310.898)"/><path class="i" d="M227.961,354.647A3.381,3.381,0,0,1,226.5,355.7c-1.055.351-2.227-1.113-1.875-1.992a13.968,13.968,0,0,1,6.8-6.562c2.109-1,5.1,3.457,3.516,3.633A11.751,11.751,0,0,0,227.961,354.647Z" transform="translate(-209.896 -308.997)"/><path class="i" d="M224.918,343.328c-.527.352-1.23,2.109-1.875,2.109-1.231.059-1.641-2.343-1-3.105,2.168-2.637,4.746-5.156,8.086-5.742,2.52-.41,5.391,3.984,3.75,3.75C230.894,339.988,226.91,341.863,224.918,343.328Z" transform="translate(-209.372 -307.053)"/><path class="i" d="M238.993,345.891a29.116,29.116,0,0,1,12.187-1.348c1.582.234,1.875,2.4.586,2.637-4.57,1.23-11.133.586-13.476,3.516C237.236,351.985,236.3,346.829,238.993,345.891Z" transform="translate(-212.257 -308.503)"/><path class="i" d="M251.229,334.8a1.43,1.43,0,0,0,.82,2.109,1.9,1.9,0,0,0,2.4-.879,1.376,1.376,0,0,0-.82-2.051A2.008,2.008,0,0,0,251.229,334.8Z" transform="translate(-214.824 -306.548)"/><path class="i" d="M247.274,324.828a1.411,1.411,0,0,0,.938,2.051,2.093,2.093,0,0,0,2.4-1,1.47,1.47,0,0,0-1-2.051A1.958,1.958,0,0,0,247.274,324.828Z" transform="translate(-214.092 -304.666)"/><path class="i" d="M242.53,316.466c-.41.644.059,1.348.938,1.582a2.3,2.3,0,0,0,2.4-.762c.41-.644-.059-1.348-.938-1.582A2.415,2.415,0,0,0,242.53,316.466Z" transform="translate(-213.215 -303.16)"/><path class="i" d="M237.42,310.254c-.41.586.117,1.23,1.113,1.289a2.484,2.484,0,0,0,2.4-.879c.41-.586-.117-1.113-1.055-1.289A2.645,2.645,0,0,0,237.42,310.254Z" transform="translate(-212.265 -301.987)"/><path class="i" d="M235.131,305.38c-.293.527.293.938,1.289.938a2.912,2.912,0,0,0,2.227-1.113c.352-.586-.176-1-1.23-.937A2.866,2.866,0,0,0,235.131,305.38Z" transform="translate(-211.851 -301.039)"/><path class="i" d="M233.847,300.307c.937-.059,1.523.352,1.23.937a2.866,2.866,0,0,1-2.285,1.113,1.469,1.469,0,0,1-1.172-.352Z" transform="translate(-211.211 -300.301)"/><path class="i" d="M234.66,337.405c-.117-1.055,0-2.168-.117-3.223a7.745,7.745,0,0,0-1.582-2.988c-.176-.117.059,1.172-.117.879.234.82.352.7.586,1.524C233.957,335.12,234.133,335.882,234.66,337.405Z" transform="translate(-211.439 -306.052)"/><path class="i" d="M230.691,328.537c-.293-.82-.41-1.758-.645-2.578a6.118,6.118,0,0,0-1.816-2.109c-.117-.117.234.879.059.7.351.645.293.293.586.938C229.519,326.6,230.047,327.424,230.691,328.537Z" transform="translate(-210.576 -304.684)"/><path class="i" d="M227.325,322.868c-.059-.7.059-1.406-.059-2.051a4.467,4.467,0,0,0-1.289-1.934c-.117-.059.059.7-.117.527.176.586.234.293.352.82C226.68,321.227,226.856,321.93,227.325,322.868Z" transform="translate(-210.139 -303.761)"/><path class="i" d="M225.084,317.832c-.293-.586-.41-1.347-.7-1.933a3.7,3.7,0,0,0-1.7-1.406c-.176,0,.234.7.059.586.293.41.234.176.527.586C223.971,316.484,224.381,317.07,225.084,317.832Z" transform="translate(-209.539 -302.944)"/><path class="i" d="M222.054,314.333a10.724,10.724,0,0,1-.469-1.465,3.24,3.24,0,0,0-1.348-1.113c-.117-.059.176.527,0,.41.293.352.234.176.469.527C221.175,313.278,221.585,313.747,222.054,314.333Z" transform="translate(-209.087 -302.433)"/><path class="i" d="M237.642,334.61a25.727,25.727,0,0,1,11.426-1.289c1.465.176,1.816,2.344.527,2.7-4.453,1.348-10.9.879-13.183,3.867C235.357,341.348,235.064,335.665,237.642,334.61Z" transform="translate(-211.96 -306.421)"/><path class="i" d="M220.966,335.219c-.527.469-1.055,2.227-1.7,2.285-1.23.176-1.816-2.168-1.172-2.988,1.875-2.812,4.219-5.566,7.5-6.5,2.461-.644,5.684,3.516,4.043,3.4C226.591,331.352,222.841,333.579,220.966,335.219Z" transform="translate(-208.644 -305.449)"/><path class="i" d="M233.918,325.6a25.16,25.16,0,0,1,11.074-2.754c1.523-.059,2.109,2.11.938,2.578-4.277,1.934-10.723,2.285-12.656,5.625C232.394,332.629,231.4,327,233.918,325.6Z" transform="translate(-211.341 -304.499)"/><path class="i" d="M230.434,318.648c2.871-1.23,5.742-3.4,9.375-3.223,1.465.059,2.461,1.992,1.348,2.285-4.219,1.348-10.605,2.7-12.3,5.215C228.091,324.156,228.091,319.644,230.434,318.648Z" transform="translate(-210.612 -303.116)"/><path class="i" d="M217.527,329.234c-.41.469-.762,1.992-1.406,2.227-1.172.352-1.992-1.582-1.523-2.344,1.523-2.637,3.457-5.332,6.621-6.68,2.344-1,6.035,1.934,4.395,2.109C222.625,324.956,219.168,327.534,217.527,329.234Z" transform="translate(-208.017 -304.385)"/><path class="i" d="M214.966,324.188c-.41.41-.762,2.637-1.406,2.871-1.289.41-1.406-1.875-1-2.578,1.406-2.4,2.637-4.746,5.859-6.328,2.461-1.113,6.621.645,4.8,1A20.665,20.665,0,0,0,214.966,324.188Z" transform="translate(-207.624 -303.557)"/><path class="i" d="M227.668,312.292c2.7-1.348,3.984-3.4,7.676-3.633,1.523-.117,2.871,1.582,1.758,1.992-4.16,1.641-10.371,3.34-11.66,5.8C224.8,317.623,225.325,313.4,227.668,312.292Z" transform="translate(-210.014 -301.856)"/><path class="i" d="M211.939,321.363c-.352.41-.82,3.047-1.465,3.4-1.289.645-1.348-1.992-.937-2.754,1.348-2.7,2.637-5.273,5.918-7.324,2.344-1.465,6.5-.41,4.746.293A24.057,24.057,0,0,0,211.939,321.363Z" transform="translate(-207.057 -302.842)"/><path class="b" d="M209.749,319.759c-.352.469-.469,2.988-1.113,3.34-1.172.82-1.523-1.582-1.231-2.4,1.113-2.812,2.109-5.508,5.156-7.91,2.227-1.816,6.445-1.172,4.746-.293A25.03,25.03,0,0,0,209.749,319.759Z" transform="translate(-206.684 -302.41)"/><path class="i" d="M224.362,308.889c2.461-1.582,3.809-3.691,7.324-4.57,1.465-.41,3.164.644,2.168,1.289-3.691,2.051-9.9,4.922-10.664,7.148C222.78,313.811,222.37,310.3,224.362,308.889Z" transform="translate(-209.579 -301.032)"/><path class="i" d="M208.728,324.659c-.117-.352-.645-.352-1.289.117-.527.469-1,1.113-.879,1.523.117.293.645.293,1.289-.117C208.435,325.713,208.845,325.069,208.728,324.659Z" transform="translate(-206.542 -304.79)"/><path class="i" d="M247.349,391.038c.059-1,.234-1.992.293-2.988a7.434,7.434,0,0,0-1.113-2.93c-.176-.176-.117,1.055-.293.762.117.82.293.7.352,1.523C246.939,388.811,247,389.573,247.349,391.038Z" transform="translate(-213.933 -316.092)"/><path class="b" d="M221.594,305.933c2.227-1.758,3.809-4.043,7.324-5.156,1.465-.527,3.164.41,2.168,1.113-3.516,2.285-9.9,5.742-10.488,8.027C220.3,310.972,219.66,307.456,221.594,305.933Z" transform="translate(-209.095 -300.361)"/></g></g><path class="c" d="M297.215,598.924l-27.363-27.363,27.363-27.246L324.4,571.562Z" transform="translate(-47.219 -78.135)"/><path class="h" d="M153.9,586.845c15.82-51.738,64.1-89.53,120.877-89.53,56.835,0,105.175,37.968,120.936,89.823l4.16-9.257c-18.75-50.917-67.851-87.421-125.1-87.421s-106.288,36.445-125.1,87.362Z" transform="translate(-24.843 -68.107)"/><path class="h" d="M454.644,538.839C426.93,455.754,348.3,395.579,256.131,395.579c-92.226,0-170.857,60.234-198.572,143.377l-8.027,2.461c27.187-88.241,109.628-152.693,206.6-152.693,96.854,0,179.178,64.277,206.482,152.342Z" transform="translate(-6.194 -49.163)"/><path class="j" d="M132.872,560.388l-16.933-36.971L59.4,540.525C87.11,457.382,165.742,397.148,257.968,397.148c92.167,0,170.8,60.175,198.513,143.26l-57.011-16-16.406,36.093c-18.808-50.976-67.851-87.421-125.1-87.421S151.68,509.529,132.872,560.388Z" transform="translate(-8.031 -50.732)"/><path class="c" d="M131.774,487.13,159.9,514.258l.527-.586a2.336,2.336,0,0,0,.82-1.465,4.639,4.639,0,0,0-1.406-1.934l-.234-.234L135.758,487.07c-.937-.937-1.641-1.405-1.992-1.405a2.33,2.33,0,0,0-1.523.937l-.469.528Zm-11.25,1.639,7.676-7.909c2.93-2.988,5.215-4.512,6.914-4.512s4.277,1.641,7.676,4.923l22.5,21.736c3.457,3.282,5.215,5.8,5.215,7.5.059,1.7-1.348,4.043-4.219,6.973l-7.676,8.027Z" transform="translate(-19.413 -65.479)"/><path class="c" d="M163.08,459.926l9.316,13.242a.541.541,0,0,1,.352-.234c.176-.117.234-.176.293-.176a2.045,2.045,0,0,0,1.055-1.406,3.976,3.976,0,0,0-.937-2.05l-5.8-8.262c-.879-1.348-1.582-1.992-1.992-2.109s-1,.117-1.758.644l-.527.352Zm-11.308-.469,9.023-6.387c3.223-2.226,5.8-3.163,7.617-2.871,1.816.352,4.043,2.4,6.621,6.094l3.926,5.624c1.758,2.462,2.7,4.337,2.871,5.625a6.368,6.368,0,0,1-.937,4.219,5.446,5.446,0,0,1,4.1.352,12.861,12.861,0,0,1,3.926,3.926l10.312,14.707L191.85,495.9,180.6,479.848a2.97,2.97,0,0,0-1.465-1.231,2.136,2.136,0,0,0-1.7.528c-.059,0-.117.117-.234.234a.635.635,0,0,0-.293.234l12.6,17.93-7.441,5.214Z" transform="translate(-25.232 -60.601)"/><path class="c" d="M185.252,438.126l12.89-6.562,3.106,6.152-4.8,2.46,6.152,12.012,4.8-2.461,3.164,6.211-4.8,2.461,8.437,16.523,4.8-2.461,3.164,6.212-12.89,6.562Z" transform="translate(-31.466 -57.14)"/><path class="c" d="M229.078,430.728l6.094,23.379,2.871-.937-8.73-22.5-.234.058Zm-8.906-8.144,11.484-3.69,21.386,48.573-8.32,2.754-4.16-10.488-3.574,1.172,2.871,10.9-8.262,2.7Z" transform="translate(-37.968 -54.781)"/><path class="c" d="M256.892,412.413l10.43-1.289,6.445,24.726.41-.059.234-25.546,10.43-1.289,6.445,52.441-7.969,1L279.8,431.339l-.527.059.41,31.464-4.746.586-7.207-30.585-.527.059,4.16,30.937-8.027,1Z" transform="translate(-44.806 -52.931)"/><path class="c" d="M328.485,421.116l-.527,7.969-8.965-.645.644-9.258a3.493,3.493,0,0,0-.234-1.757,1.4,1.4,0,0,0-1.113-.587,1.142,1.142,0,0,0-1.055.469,4.156,4.156,0,0,0-.41,1.7l-.586,8.144a4.125,4.125,0,0,0,.293,2.11,5.185,5.185,0,0,0,1.524,1.406l5.273,3.574a8.039,8.039,0,0,1,3.046,3.281,10.269,10.269,0,0,1,.645,4.98l-.762,11.015q-.527,7.031-2.462,8.613c-1.289,1.055-4.218,1.465-8.73,1.113-4.453-.293-7.266-1.113-8.437-2.4q-1.67-1.933-1.23-8.79l.82-11.659,9.082.644-.939,12.833a2.882,2.882,0,0,0,.294,1.758,1.287,1.287,0,0,0,2.11.176,3.482,3.482,0,0,0,.41-1.757l.761-11.134a3.982,3.982,0,0,0-.234-2.05,6.121,6.121,0,0,0-1.523-1.407l-5.566-3.75a8.252,8.252,0,0,1-2.93-3.34,12.277,12.277,0,0,1-.586-5.215l.527-7.5c.352-4.57,1.172-7.441,2.462-8.555,1.347-1.113,4.276-1.582,8.73-1.23,4.453.292,7.266,1.054,8.436,2.343S328.836,416.428,328.485,421.116Z" transform="translate(-53.821 -53.079)"/><path class="c" d="M363.7,424.976l-5.274,19.629.821.176a2.08,2.08,0,0,0,1.7,0,5.949,5.949,0,0,0,1.112-2.519l3.575-13.3c.41-1.523.527-2.52.293-2.87-.177-.41-.7-.7-1.582-.938l-.644-.177Zm-6.914-8.964,10.663,2.812c3.985,1.113,6.387,2.4,7.266,3.868.879,1.523.7,4.512-.526,9.081l-3.283,12.187c-1.229,4.571-2.578,7.324-4.1,8.2-1.523.819-4.218.762-8.144-.293l-1.993-.527-4.862,18.047-8.731-2.343Z" transform="translate(-60.854 -54.244)"/><path class="c" d="M395.409,441.788l-11.133,21.446,2.813,1.231,8.555-22.559-.235-.118Zm-1.172-11.952,11.015,4.863-16.64,50.449-8.027-3.575,3.984-10.547-3.457-1.523-5.157,10.02-7.968-3.575Z" transform="translate(-65.493 -56.819)"/><path class="c" d="M431.114,458.028l-9.258,13.242a1.253,1.253,0,0,1,.352.234c.117.117.234.234.292.234a1.8,1.8,0,0,0,1.641.469c.468-.117,1-.644,1.581-1.522l5.859-8.263c.879-1.348,1.348-2.168,1.23-2.637-.059-.41-.469-.879-1.172-1.406l-.527-.352Zm-3.4-10.84,9.023,6.387c3.28,2.227,5.038,4.277,5.332,6.093s-.82,4.63-3.4,8.321l-3.984,5.625c-1.7,2.462-3.164,3.985-4.336,4.629a6.1,6.1,0,0,1-4.277.469,5.869,5.869,0,0,1,1.113,3.983,12.338,12.338,0,0,1-2.4,5.04l-10.312,14.707-7.384-5.156,11.251-16a3.087,3.087,0,0,0,.645-1.816,1.9,1.9,0,0,0-1-1.406.965.965,0,0,0-.352-.176c-.116-.059-.234-.176-.292-.176l-12.6,17.929-7.382-5.154Z" transform="translate(-70.963 -60.05)"/><path class="c" d="M460.65,473.324l6.034,6.269-15.175,14.648.293.177,17.4-12.247,6.211,6.446-20.39,12.538L437.8,525.765l-6.27-6.5,15.82-20.507-.234-.234-18.457,17.812L422.564,510Z" transform="translate(-75.655 -64.916)"/></g></svg>